<?xml version="1.0" encoding="utf-8"?>
<!-- Generator: Adobe Illustrator 26.0.1, SVG Export Plug-In . SVG Version: 6.00 Build 0)  -->
<svg version="1.1" id="Layer_1" xmlns="http://www.w3.org/2000/svg" xmlns:xlink="http://www.w3.org/1999/xlink" x="0px" y="0px"
	 viewBox="0 0 23.7 15.1" style="enable-background:new 0 0 23.7 15.1;" xml:space="preserve">
<style type="text/css">
	.st0{fill:#F0F0F0;}
</style>
<g>
	<g>
		<path class="st0" d="M23.5,8.3c-2.4,4.2-6.8,6.7-11.7,6.8c-1.7,0-3.3-0.4-4.9-1l0.8-0.8c1.3,0.5,2.7,0.7,4.1,0.7
			c4.2-0.1,8.1-2.2,10.4-5.7c0.3-0.5,0.3-1.1,0-1.6c-1.1-1.6-2.4-2.9-4-3.9L19,2.2c1.9,1.2,3.4,2.8,4.6,4.7
			C23.8,7.3,23.8,7.8,23.5,8.3z"/>
		<path class="st0" d="M15.9,7.6c0,2.2-1.8,4-4,4c-0.7,0-1.3-0.2-1.9-0.5l0.8-0.8c0.3,0.1,0.7,0.2,1.1,0.2c1.7,0,3-1.4,3-3
			c0-0.4-0.1-0.8-0.2-1.1l0.8-0.8C15.7,6.3,15.9,6.9,15.9,7.6z"/>
	</g>
	<g>
		<path class="st0" d="M19.3,0.1c-0.2-0.2-0.5-0.2-0.7,0l-1.2,1.2C17.2,1.2,17,1.1,16.7,1c-1.5-0.6-3.2-0.9-4.9-0.9
			C7,0.1,2.6,2.7,0.2,6.9c-0.2,0.4-0.2,1,0,1.4c1.1,2,2.7,3.6,4.6,4.7c0.2,0.1,0.4,0.2,0.6,0.4l-0.9,0.9c-0.2,0.2-0.2,0.5,0,0.7
			c0.2,0.2,0.5,0.2,0.7,0l5-5l4.2-4.2l4-4l0.9-0.9C19.5,0.7,19.5,0.3,19.3,0.1z M9.4,9.3C9.3,9.1,9.2,8.9,9.1,8.7
			C8.9,8.3,8.9,8,8.9,7.6c0-1.7,1.3-3,3-3c0.4,0,0.8,0.1,1.1,0.2c0.2,0.1,0.5,0.2,0.7,0.3L9.4,9.3z M14.3,4.4
			c-0.2-0.1-0.4-0.3-0.6-0.4c-0.5-0.3-1.2-0.4-1.9-0.4c-2.2,0-4,1.8-4,4c0,0.7,0.2,1.3,0.5,1.8C8.4,9.6,8.6,9.8,8.7,10l-2.6,2.6
			c-0.2-0.1-0.4-0.2-0.6-0.4c-1.6-1-3-2.3-4-3.9c-0.3-0.5-0.3-1.1,0-1.6c2.3-3.5,6.2-5.6,10.4-5.7c1.4,0,2.8,0.3,4.1,0.7
			c0.2,0.1,0.5,0.2,0.7,0.3L14.3,4.4z"/>
	</g>
</g>
</svg>
